<svg width="81" height="83" viewBox="0 0 81 83" fill="none" xmlns="http://www.w3.org/2000/svg">
<g filter="url(#filter0_d_1585_2872)">
<rect x="0.5" width="80" height="80" rx="12" fill="#E16033"/>
</g>
<path d="M24.04 28.136V27.032H21.496V23.576H19.352V31.112H17.528V35.784C17.16 35.096 16.648 34.36 16.184 33.896L15.512 34.232C15.848 35.048 16.216 36.056 16.456 36.92L17.528 36.424V38.28H19.512V37.16H21.576V38.28H23.592V31.112H21.496V28.136H24.04ZM10.024 32.808L10.376 34.632C12.504 34.456 15.256 33.976 17.352 33.304L17.192 32.472C16.44 32.536 15.672 32.6 14.904 32.648V31.8H17.224V30.744H14.904V29.912H17.304V24.248H10.376V29.912H12.76V30.744H10.36V31.8H12.76V32.76C11.864 32.792 10.952 32.808 10.024 32.808ZM11.944 28.872V25.288H13.144V27.688C13.016 27 12.824 26.296 12.6 25.72L11.944 25.848C12.088 26.728 12.216 27.672 12.296 28.552L13.144 28.376V28.872H11.944ZM14.536 25.288H15.736V25.816L14.952 25.656C14.888 26.44 14.728 27.736 14.568 28.504L15.208 28.664C15.4 28.248 15.592 27.576 15.736 26.936V28.872H14.536V25.288ZM21.576 32.168V36.088H19.512V32.168H21.576ZM14.04 34.568C14.28 35.72 14.424 36.6 14.568 37.656L16.04 37.24C15.768 36.296 15.336 35.272 14.808 34.344L14.04 34.568ZM12.472 34.824C12.52 35.864 12.52 37.048 12.488 38.136L14.136 37.976C13.96 36.904 13.64 35.672 13.288 34.712L12.472 34.824ZM11.096 34.824C10.76 35.976 10.328 37.016 9.768 37.816L11.608 38.472C11.848 37.544 11.992 36.136 11.928 34.936L11.096 34.824ZM39.608 33.464H38.664C38.68 35.928 38.552 36.28 37.992 36.008C37.48 35.768 37.064 35.24 36.76 34.552C37.864 33.336 38.728 31.896 39.384 30.36L37.432 29.528C37.048 30.568 36.616 31.496 36.104 32.344C35.912 31.256 35.8 30.056 35.736 28.92H39.944V27.784H35.688C35.656 26.552 35.64 25.48 35.656 23.608H33.528V25.096L32.184 23.464C30.616 24.376 28.6 25.144 26.28 25.624L26.424 26.584C27.288 26.552 28.2 26.456 29.112 26.312V27.784H26.056V28.92H29.112V31.608C28.024 31.912 26.888 32.2 25.784 32.44L26.488 34.536C27.336 34.312 28.232 33.992 29.112 33.608V35.768C29.112 36.696 28.92 36.824 26.552 36.504L26.344 37.384C29.064 38.856 31.24 38.488 31.24 36.296V32.568C32.088 32.088 32.872 31.576 33.528 31.064L33.128 30.232C32.536 30.472 31.896 30.696 31.24 30.936V28.92H33.608C33.688 30.68 33.928 32.728 34.52 34.456C33.672 35.336 32.68 36.104 31.448 36.792L31.88 37.688C33.128 37.304 34.232 36.728 35.192 35.992C35.848 37.176 36.776 38.04 38.088 38.264C40.248 38.632 40.424 36.632 39.608 33.464ZM39.608 26.312C38.92 25.4 37.784 24.328 36.712 23.656L35.96 24.264C36.568 25.224 37.32 26.472 37.864 27.544L39.608 26.312ZM31.24 25.896C32.12 25.688 32.904 25.448 33.528 25.16C33.528 26.168 33.544 26.92 33.56 27.784H31.24V25.896ZM51.128 32.072C51.624 31.624 52.104 31.048 52.52 30.392C52.968 31.064 53.416 31.816 53.848 32.6L55.448 31.352C54.888 30.68 54.024 29.88 53.128 29.256C53.368 28.728 53.576 28.168 53.72 27.592L51.608 27.144C51.384 28.824 51 30.104 50.392 31.288L50.12 30.968V26.744H55.528V25.528H50.12V23.512H47.8V25.528H42.456V26.744H47.8V30.456C47.752 30.584 47.688 30.696 47.624 30.824C47.272 30.328 46.776 29.736 46.184 29.24C46.408 28.648 46.568 28.056 46.664 27.528L44.52 27.144C44.296 29.272 43.592 31.576 42.424 33.048L43.048 33.704C44.088 32.968 44.952 31.8 45.592 30.584C45.8 31.064 45.992 31.592 46.184 32.152L47.336 31.368C46.056 33.608 43.832 35.768 41.656 36.92L42.088 37.816C44.344 36.968 46.472 35.464 47.8 33.864V38.296H50.12V33.08C51.384 34.92 53.352 36.648 55.16 37.56L56.424 35.416C54.68 34.776 52.68 33.576 51.128 32.072ZM68.728 26.984V23.56H66.52V26.984H63.56V38.136H65.704V36.76H69.56V38.088H71.72V26.984H68.728ZM62.872 29.72C62.584 29.848 62.328 29.96 62.072 30.056V27.864H63.24V26.824H62.072V23.608H59.816V26.824H57.992V27.864H59.816V30.824C59.208 30.984 58.536 31.144 57.736 31.32L58.536 33.496C58.984 33.288 59.4 33.08 59.816 32.856V36.104C59.816 36.792 59.64 36.952 58.168 36.744L57.992 37.608C60.296 38.792 62.072 38.456 62.072 36.568V31.464C62.472 31.176 62.888 30.856 63.32 30.504L62.872 29.72ZM66.648 31.128H65.704V28.024H66.648V31.128ZM69.56 31.128H68.6V28.024H69.56V31.128ZM66.648 35.72H65.704V32.168H66.648V35.72ZM69.56 35.72H68.6V32.168H69.56V35.72ZM16.8813 59V57.528H12.8653V47.24H10.4013V59H16.8813ZM19.6306 49.592C20.3506 49.592 20.9586 48.984 20.9586 48.248C20.9586 47.528 20.3506 46.936 19.6306 46.936C18.8946 46.936 18.2706 47.528 18.2706 48.248C18.2706 48.984 18.8946 49.592 19.6306 49.592ZM18.4466 59H20.7986V50.696H18.4466V59ZM28.0678 59H30.4198V53.448C30.4198 51.768 29.4758 50.488 27.6198 50.456C26.4198 50.44 25.4278 51.096 25.0598 51.912V50.648H22.8678V59.016H25.2198V54.632C25.2198 53.048 25.6518 52.088 26.8358 52.088C27.7478 52.088 28.0678 52.792 28.0678 53.64V59ZM36.6863 59.32C37.9023 59.32 38.8463 59.096 39.5023 58.6V56.984C38.7023 57.592 37.8383 57.928 36.8303 57.896C35.2623 57.864 34.4943 56.952 34.4943 55.208H39.9983C40.0463 54.872 40.0783 54.568 40.0623 54.248C40.0143 52.44 38.9423 50.408 36.1903 50.408C33.5182 50.408 32.0783 52.472 32.0623 54.776C32.0623 57.576 33.5023 59.32 36.6863 59.32ZM34.5423 54.008C34.5423 52.712 35.1503 51.656 36.1903 51.656C37.1983 51.656 37.7583 52.664 37.7423 54.008H34.5423ZM55.7588 50.136V49.032H53.2148V45.576H51.0708V53.112H49.2468V57.784C48.8788 57.096 48.3668 56.36 47.9028 55.896L47.2308 56.232C47.5668 57.048 47.9348 58.056 48.1748 58.92L49.2468 58.424V60.28H51.2308V59.16H53.2948V60.28H55.3108V53.112H53.2148V50.136H55.7588ZM41.7428 54.808L42.0948 56.632C44.2228 56.456 46.9748 55.976 49.0708 55.304L48.9108 54.472C48.1588 54.536 47.3908 54.6 46.6228 54.648V53.8H48.9427V52.744H46.6228V51.912H49.0228V46.248H42.0948V51.912H44.4788V52.744H42.0788V53.8H44.4788V54.76C43.5828 54.792 42.6708 54.808 41.7428 54.808ZM43.6628 50.872V47.288H44.8628V49.688C44.7348 49 44.5428 48.296 44.3188 47.72L43.6628 47.848C43.8068 48.728 43.9348 49.672 44.0148 50.552L44.8628 50.376V50.872H43.6628ZM46.2548 47.288H47.4548V47.816L46.6708 47.656C46.6068 48.44 46.4468 49.736 46.2868 50.504L46.9268 50.664C47.1188 50.248 47.3108 49.576 47.4548 48.936V50.872H46.2548V47.288ZM53.2948 54.168V58.088H51.2308V54.168H53.2948ZM45.7588 56.568C45.9988 57.72 46.1428 58.6 46.2868 59.656L47.7588 59.24C47.4868 58.296 47.0548 57.272 46.5268 56.344L45.7588 56.568ZM44.1908 56.824C44.2388 57.864 44.2388 59.048 44.2068 60.136L45.8548 59.976C45.6788 58.904 45.3588 57.672 45.0068 56.712L44.1908 56.824ZM42.8148 56.824C42.4788 57.976 42.0468 59.016 41.4868 59.816L43.3268 60.472C43.5668 59.544 43.7108 58.136 43.6468 56.936L42.8148 56.824ZM69.5188 55.864C70.2868 54.216 70.7028 52.216 70.7988 49.848H71.6788V48.808H68.1588C68.5108 47.832 68.7828 46.808 68.9588 45.8L66.7188 45.512C66.5268 47.736 66.1428 50.104 65.4708 51.912V51.48H62.8948V50.92H65.3108V49.256H66.1428V48.28H65.3108V46.616H62.8948V45.56H60.9908V46.616H58.5748V48.28H57.6628V49.256H58.5748V50.92H60.9908V51.48H58.3828V54.264H60.3988C60.3028 54.488 60.1908 54.712 60.0788 54.936H57.8228V55.928H59.5668C59.1348 56.728 58.6868 57.48 58.3988 57.912L59.9668 58.6C60.1268 58.344 60.3348 58.024 60.5428 57.672C60.8628 57.832 61.1668 57.976 61.4708 58.12C60.5268 58.856 59.2948 59.304 57.8868 59.512L58.0468 60.312C59.8548 60.232 61.5828 59.784 62.8788 58.888C63.3908 59.192 63.9188 59.528 64.5108 59.944L65.5828 58.312C65.1348 58.088 64.6548 57.896 64.1588 57.72C64.5588 57.208 64.8628 56.616 65.0388 55.928H66.2388V54.936H62.0948C62.2228 54.696 62.3348 54.472 62.4308 54.264H65.4708V52.744L65.8548 53.016C66.1428 52.68 66.4148 52.296 66.6868 51.88C66.8148 53.416 67.1348 54.808 67.6468 56.056C67.0228 57.432 66.1267 58.568 64.8468 59.624L65.3268 60.296C66.5908 59.624 67.6308 58.76 68.4468 57.672C69.0388 58.68 69.7588 59.56 70.5908 60.328L72.1268 58.36C71.1348 57.608 70.2548 56.824 69.5188 55.864ZM60.2388 47.56H61.0068V48.28H60.2388V47.56ZM62.8628 47.56H63.6468V48.28H62.8628V47.56ZM60.2388 49.976V49.256H61.0068V49.976H60.2388ZM62.8628 49.256H63.6468V49.976H62.8628V49.256ZM67.4548 50.472L67.7428 49.848H68.7828C68.7348 51.368 68.6068 52.68 68.3508 53.832C67.9508 52.888 67.6468 51.8 67.4548 50.472ZM60.1268 52.424H60.9908V53.32H60.1268V52.424ZM63.7428 53.32H62.8948V52.424H63.7428V53.32ZM63.0228 55.928C62.8628 56.392 62.6548 56.808 62.3828 57.176C61.9188 57.048 61.4548 56.952 61.0228 56.872C61.1988 56.568 61.3908 56.248 61.5668 55.928H63.0228Z" fill="white"/>
<defs>
<filter id="filter0_d_1585_2872" x="0.5" y="0" width="80" height="83" filterUnits="userSpaceOnUse" color-interpolation-filters="sRGB">
<feFlood flood-opacity="0" result="BackgroundImageFix"/>
<feColorMatrix in="SourceAlpha" type="matrix" values="0 0 0 0 0 0 0 0 0 0 0 0 0 0 0 0 0 0 127 0" result="hardAlpha"/>
<feOffset dy="3"/>
<feComposite in2="hardAlpha" operator="out"/>
<feColorMatrix type="matrix" values="0 0 0 0 0.729167 0 0 0 0 0.0789931 0 0 0 0 0.0789931 0 0 0 0.25 0"/>
<feBlend mode="normal" in2="BackgroundImageFix" result="effect1_dropShadow_1585_2872"/>
<feBlend mode="normal" in="SourceGraphic" in2="effect1_dropShadow_1585_2872" result="shape"/>
</filter>
</defs>
</svg>
