<svg width="174" height="186" viewBox="0 0 174 186" fill="none" xmlns="http://www.w3.org/2000/svg">
<g filter="url(#filter0_dd_620_1410)">
<circle cx="86" cy="54" r="52" fill="#858585"/>
<circle cx="86" cy="54" r="50.5" stroke="white" stroke-opacity="0.3" stroke-width="3"/>
</g>
<path d="M100.09 38.6134C100.09 38.604 100.09 38.5947 100.089 38.5856C100.073 31.5014 94.3238 25.7546 87.2418 25.75C80.154 25.7454 74.3756 31.5052 74.3633 38.5889L74.5633 38.5893L74.3633 38.5889C74.3511 45.6983 80.137 51.4889 87.2464 51.4828H87.2465C94.3362 51.4751 100.09 45.7087 100.09 38.6134ZM95.9866 38.5716C95.9856 38.5805 95.9851 38.5896 95.9852 38.5987C95.991 43.4455 92.0698 47.3764 87.2327 47.3764C82.3982 47.3764 78.4638 43.4376 78.4682 38.6031C78.4726 33.7936 82.3954 29.8637 87.2016 29.8534C92.0411 29.8447 95.9676 33.744 95.9866 38.5716Z" fill="white" stroke="white" stroke-width="0.5" stroke-linejoin="round"/>
<path d="M89.1548 75.3458L89.1547 75.3461C89.0082 75.7446 88.7817 76.0638 88.4775 76.2951C88.174 76.5259 87.8064 76.6593 87.3921 76.7078L87.3906 76.7079C87.2634 76.7221 87.128 76.7199 87.0133 76.7181C86.9774 76.7175 86.9436 76.717 86.9126 76.717H86.8682H86.8238H86.7793H86.7349H86.6905H86.6461H86.6016H86.5572H86.5128H86.4683H86.4239H86.3795H86.3351H86.2906H86.2462H86.2018H86.1574H86.1129H86.0685H86.0241H85.9797H85.9352H85.8908H85.8464H85.802H85.7575H85.7131H85.6687H85.6243H85.5798H85.5354H85.491H85.4466H85.4021H85.3577H85.3133H85.2689H85.2244H85.18H85.1356H85.0911H85.0467H85.0023H84.9579H84.9134H84.869H84.8246H84.7802H84.7357H84.6913H84.6469H84.6025H84.558H84.5136H84.4692H84.4248H84.3803H84.3359H84.2915H84.2471H84.2027H84.1582H84.1138H84.0694H84.025H83.9805H83.9361H83.8917H83.8473H83.8028H83.7584H83.714H83.6696H83.6251H83.5807H83.5363H83.4919H83.4474H83.403H83.3586H83.3142H83.2697H83.2253H83.1809H83.1365H83.092H83.0476H83.0032H82.9588H82.9143H82.8699H82.8255H82.7811H82.7366H82.6922H82.6478H82.6034H82.559H82.5145H82.4701H82.4257H82.3813H82.3368H82.2924H82.248H82.2036H82.1591H82.1147H82.0703H82.0259H81.9814H81.937H81.8926H81.8482H81.8037H81.7593H81.7149H81.6705H81.6261H81.5816H81.5372H81.4928H81.4484H81.4039H81.3595H81.3151H81.2707H81.2262H81.1818H81.1374H81.093H81.0486H81.0041H80.9597H80.9153H80.8709H80.8264H80.782H80.7376H80.6932H80.6487H80.6043H80.5599H80.5155H80.4711H80.4266H80.3822H80.3378H80.2934H80.2489H80.2045H80.1601H80.1157H80.0712H80.0268H79.9824H79.938H79.8936H79.8491H79.8047H79.7603H79.7159H79.6714H79.627H79.5826H79.5382H79.4937H79.4493H79.4049H79.3605H79.3161H79.2716H79.2272H79.1828H79.1384H79.0939H79.0495H79.0051H78.9607H78.9163H78.8718H78.8274H78.783H78.7386H78.6941H78.6497H78.6053H78.5609H78.5165H78.472H78.4276H78.3832H78.3388H78.2943H78.2499H78.2055H78.1611H78.1166H78.0722H78.0278H77.9834H77.939H77.8945H77.8501H77.8057H77.7613H77.7168H77.6724H77.628H77.5836H77.5392H77.4947H77.4503H77.4059H77.3615H77.317H77.2726H77.2282H77.1838H77.1394H77.0949H77.0505H77.0061H76.9617H76.9172H76.8728H76.8284H76.784H76.7396H76.6951H76.6507H76.6063H76.5619H76.5174H76.473H76.4286H76.3842H76.3398H76.2953H76.2509H76.2065H76.1621H76.1176H76.0732H76.0288H75.9844H75.94H75.8955H75.8511H75.8067H75.7623H75.7178H75.6734H75.629H75.5846H75.5402H75.4957H75.4513H75.4069H75.3625H75.318H75.2736H75.2292H75.1848H75.1404H75.0959H75.0515H75.0071H74.9627H74.9182H74.8738H74.8294H74.785H74.7406H74.6961H74.6517H74.6073H74.5629H74.5184H74.474H74.4296H74.3852H74.3408H74.2963H74.2519H74.2075H74.1631H74.1186H74.0742H74.0298H73.9854H73.941H73.8965H73.8521H73.8077H73.7633H73.7188H73.6744H73.63H73.5856H73.5412H73.4967H73.4523H73.4079H73.3635H73.319H73.2746H73.2302H73.1858H73.1414H73.0969H73.0525H73.0081H72.9637H72.9192H72.8748H72.8304H72.786H72.7416H72.6971H72.6527H72.6083H72.5639H72.5194H72.475H72.4306H72.3862H72.3418H72.2973H72.2529H72.2085H72.1641H72.1196H72.0752H72.0308H71.9864H71.942H71.8975H71.8531H71.8087H71.7643H71.7198H71.6754H71.631H71.5866H71.5421H71.4977H71.4533H71.4089H71.3645H71.32H71.2756H71.2312H71.1868H71.1423H71.0979H71.0535H71.0091H70.9647H70.9202H70.8758H70.8314H70.787H70.7425H70.6981H70.6537H70.6093H70.5648H70.5204H70.476H70.4316H70.3872H70.3427H70.2983H70.2539H70.2095H70.165H70.1206H70.0762H70.0318H69.9873H69.9429H69.8985H69.8541H69.8096H69.7652H69.7208H69.6764H69.632H69.5875H69.5431H69.4987H69.4543H69.4098H69.3654H69.321H69.2766H69.2321H69.1877H69.1433H69.0989H69.0545H69.01H68.9656H68.9212H68.8768H68.8323H68.7879H68.7435H68.6991H68.6546H68.6102H68.5658H68.5214H68.4769H68.4325H68.3881H68.3437H68.2992H68.2548H68.2104H68.166H68.1216H68.0771H68.0327H67.9883H67.9439H67.8994H67.855H67.8106H67.7662H67.7217H67.6773H67.6329H67.5885H67.544H67.4996H67.4552H67.4108H67.3663H67.3219H67.2775H67.2331H67.1886H67.1442H67.0998H67.0554H67.0109H66.9665H66.9221H66.8777H66.8332H66.7888H66.7444H66.7H66.6555H66.6111H66.5667H66.5223H66.4778H66.4334H66.389H66.3446H66.3001H66.2557H66.2113H66.1669H66.1224H66.078H66.0336H65.9892H65.9447H65.9003H65.8559H65.8115H65.767H65.7226H65.6782H65.6338H65.5893H65.5449H65.5005H65.4561H65.4116H65.3672H65.3228H65.2784H65.2339H65.1895H65.1451H65.1007H65.0562H65.0118H64.9674H64.923H64.8785H64.8341H64.7897H64.7452H64.7008H64.6564H64.612H64.5675H64.5231H64.4787H64.4343H64.3898H64.3454H64.301H64.2566H64.2121H64.1677C63.3884 76.717 62.7652 76.5427 62.3419 76.1232C61.9176 75.7027 61.7426 75.0841 61.7497 74.3072C61.7536 73.8737 61.7519 73.4377 61.7502 73C61.7436 71.2836 61.7369 69.5398 62.0679 67.8094L62.0679 67.8094C63.3991 60.8559 69.4569 55.2655 76.535 54.7145L76.535 54.7145C78.4766 54.5635 80.438 54.5756 82.3872 54.5876C83.258 54.593 84.1264 54.5984 84.9895 54.5891L89.1548 75.3458ZM89.1548 75.3458C89.4081 74.6537 89.279 73.9645 88.8813 73.4504C88.485 72.9383 87.8338 72.6136 87.0644 72.6136M89.1548 75.3458L66.345 72.6121M66.345 72.6121H66.3463C68.0718 72.6121 69.7973 72.612 71.5227 72.6119C76.7032 72.6116 81.8834 72.6113 87.0644 72.6136M66.345 72.6121H66.3437H66.3424H66.341H66.3397H66.3384H66.3371H66.3358H66.3345H66.3332H66.3319H66.3306H66.3293H66.328H66.3267H66.3254H66.3241H66.3228H66.3215H66.3202H66.3189H66.3176H66.3163H66.315H66.3137H66.3124H66.3111H66.3098H66.3085H66.3072H66.3059H66.3045H66.3032H66.3019H66.3006H66.2993H66.298H66.2967H66.2954H66.2941H66.2928H66.2915H66.2902H66.2888H66.2875H66.2862H66.2849H66.2836H66.2823H66.281H66.2797H66.2783H66.277H66.2757H66.2744H66.2731H66.2718H66.2705H66.2691H66.2678H66.2665H66.2652H66.2639H66.2625H66.2612H66.2599H66.2586H66.2573H66.2559H66.2546H66.2533H66.252H66.2506H66.2493H66.248H66.2467H66.2453H66.244H66.2427H66.2414H66.24H66.2387H66.2374H66.236H66.2347H66.2334H66.232H66.2307H66.2294H66.228H66.2267H66.2253H66.224H66.2227H66.2213H66.22H66.2186H66.2173H66.2159H66.2146H66.2133H66.2119H66.2106H66.2092H66.2079H66.2065H66.2052H66.2038H66.2025H66.2011H66.1997H66.1984H66.197H66.1957H66.1943H66.193H66.1916H66.1902H66.1889H66.1875H66.1861H66.1848H66.1834H66.182H66.1807H66.1793H66.1779H66.1765H66.1752H66.1738H66.1724H66.171H66.1697H66.1683H66.1669H66.1655H66.1641H66.1628H66.1614H66.16H66.1586H66.1572H66.1558H66.1544H66.153H66.1516H66.1502H66.1488H66.1474H66.146H66.1446H66.1432H66.1418H66.1404H66.139H66.1376H66.1362H66.1348H66.1334H66.132H66.1306H66.1291H66.1277H66.1263H66.1249H66.1235H66.122H66.1206H66.1192H66.1178H66.1163H66.1149H66.1135H66.112H66.1106H66.1092H66.1077H66.1063H66.1049H66.1034H66.102H66.1005H66.0991H66.0976H66.0962H66.0947H66.0933H66.0918H66.0904H66.0889H66.0874H66.086H66.0845H66.083H66.0816H66.0801H66.0786H66.0772H66.0757H66.0742H66.0727H66.0713H66.0698H66.0683H66.0668H66.0653H66.0638H66.0624H66.0609H66.0594H66.0579H66.0564H66.0549H66.0534H66.0519H66.0504H66.0489H66.0474H66.0458H66.0443H66.0428H66.0413H66.0398H66.0383H66.0367H66.0352H66.0337H66.0322H66.0306H66.0291H66.0276H66.026H66.0245H66.023H66.0214H66.0199H66.0183H66.0168H66.0152H66.0137H66.0121H66.0106H66.009H66.0074H66.0059H66.0043H66.0027H66.0012H65.9996H65.998H65.9965H65.9949H65.9933H65.9917H65.9901H65.9885H65.987H65.9854H65.9838H65.9822H65.9806H65.979H65.9774H65.9758H65.9742H65.9726H65.9709H65.9693H65.9677H65.9661H65.9645H65.9628H65.9612H65.9596H65.958H65.9563H65.9547H65.9531H65.9514H65.9498H65.9481H65.9465H65.9448H65.9432H65.9415H65.9399H65.9382H65.9365H65.9349H65.9332H65.9315H65.9299H65.9282H65.9265H65.9248H65.9231H65.9215H65.9198H65.9181H65.9164H65.9147H65.913H65.9113H65.9096H65.9079H65.9062H65.9045H65.9027H65.901H65.8993H65.8976H65.8959H65.8941H65.8924H65.8907H65.8889H65.8872H65.8855H65.8837H65.882H65.8802H65.8785H65.8767H65.8749H65.8732H65.8714H65.8697H65.8679H65.8661H65.8643H65.8626H65.8608H65.859H65.8572H65.8554H65.8536H65.8518H65.85H65.8482H65.8464H65.8446H65.8428H65.841H65.8392H65.8373H65.8355H65.8337H65.8319H65.83H65.8282H65.8264H65.8245H65.8227H65.8208H65.819H65.8171H65.8153H65.8134H65.8116H65.8097H65.8078H65.8059H65.8041H65.8022H65.8003H65.7984H65.7965H65.7946H65.7928H65.7909H65.789H65.787H65.7851H65.7832H65.7813H65.7794H65.7775H65.7756H65.7736H65.7717H65.7698H65.7678H65.7659H65.7639H65.762H65.76H65.7581H65.7561H65.7542H65.7537M66.345 72.6121H65.7537M87.0644 72.6136L87.0643 72.8636L87.0644 72.6136ZM65.7537 72.6121C65.7872 72.1963 65.8111 71.7901 65.8345 71.3916C65.8938 70.3831 65.9502 69.4238 66.1523 68.4824C67.4048 62.6494 72.3493 58.7117 78.3237 58.694C78.3237 58.694 78.3237 58.694 78.3238 58.694L65.7537 72.6121ZM86.5992 58.691C87.8654 58.6893 88.81 57.854 88.8187 56.6546C88.8273 55.4539 87.8823 54.5991 86.6264 54.5891L86.5992 58.691ZM86.6263 54.5891C86.082 54.5846 85.5353 54.5831 84.9896 54.5891L86.6263 54.5891Z" fill="white" stroke="white" stroke-width="0.5" stroke-linejoin="round"/>
<path d="M104.037 53C110.68 53.0184 116.029 58.3888 116.02 65.0285C116.012 71.6398 110.585 77.0486 103.983 77.0235C97.3621 76.9985 91.9883 71.5964 92 64.9751C92.0117 58.3471 97.4055 52.9817 104.037 53V53ZM112.017 64.9768C112.007 60.5703 108.417 56.9995 104.002 57.0045C99.587 57.0095 96.0078 60.5854 96.0045 64.9951C96.0012 69.3915 99.592 73.0007 103.988 73.0191C108.397 73.0374 112.027 69.4015 112.017 64.9768Z" fill="white"/>
<path d="M102.007 68.1723C102.007 67.464 101.991 66.7558 102.01 66.0475C102.041 64.8802 102.932 64.0034 104.061 64C105.182 63.9966 106.103 64.8802 106.124 66.0372C106.148 67.4537 106.148 68.8703 106.124 70.2868C106.105 71.4507 105.201 72.3274 104.073 72.3291C102.947 72.3309 102.043 71.4524 102.01 70.2971C101.99 69.5889 102.007 68.8806 102.007 68.1723V68.1723Z" fill="white"/>
<path d="M104.044 63.1156C102.917 63.1053 102.002 62.1804 102.009 61.0561C102.014 59.9335 102.941 59.0052 104.061 59C105.198 58.9949 106.152 59.9662 106.131 61.1077C106.111 62.232 105.182 63.1259 104.044 63.1156V63.1156Z" fill="white"/>
<defs>
<filter id="filter0_dd_620_1410" x="0" y="0" width="174" height="186" filterUnits="userSpaceOnUse" color-interpolation-filters="sRGB">
<feFlood flood-opacity="0" result="BackgroundImageFix"/>
<feColorMatrix in="SourceAlpha" type="matrix" values="0 0 0 0 0 0 0 0 0 0 0 0 0 0 0 0 0 0 127 0" result="hardAlpha"/>
<feOffset dx="1" dy="45"/>
<feGaussianBlur stdDeviation="17.5"/>
<feComposite in2="hardAlpha" operator="out"/>
<feColorMatrix type="matrix" values="0 0 0 0 0.521569 0 0 0 0 0.521569 0 0 0 0 0.521569 0 0 0 0.06 0"/>
<feBlend mode="normal" in2="BackgroundImageFix" result="effect1_dropShadow_620_1410"/>
<feColorMatrix in="SourceAlpha" type="matrix" values="0 0 0 0 0 0 0 0 0 0 0 0 0 0 0 0 0 0 127 0" result="hardAlpha"/>
<feOffset dy="8"/>
<feGaussianBlur stdDeviation="5"/>
<feComposite in2="hardAlpha" operator="out"/>
<feColorMatrix type="matrix" values="0 0 0 0 0.521569 0 0 0 0 0.521569 0 0 0 0 0.521569 0 0 0 0.25 0"/>
<feBlend mode="normal" in2="effect1_dropShadow_620_1410" result="effect2_dropShadow_620_1410"/>
<feBlend mode="normal" in="SourceGraphic" in2="effect2_dropShadow_620_1410" result="shape"/>
</filter>
</defs>
</svg>
